<?xml version="1.0" encoding="utf-8"?>
<!-- Generator: Adobe Illustrator 23.0.3, SVG Export Plug-In . SVG Version: 6.00 Build 0)  -->
<svg version="1.1" id="Camada_1" xmlns="http://www.w3.org/2000/svg" xmlns:xlink="http://www.w3.org/1999/xlink" x="0px" y="0px"
	 viewBox="0 0 71.7 71.7" style="enable-background:new 0 0 71.7 71.7;" xml:space="preserve">
<style type="text/css">
	.st0{fill:#57F676;}
	.st1{fill-rule:evenodd;clip-rule:evenodd;fill:#FFFFFF;}
</style>
<g id="XMLID_110_">
	<path id="XMLID_1108_" class="st0" d="M35.9,71.7L35.9,71.7C16.1,71.7,0,55.7,0,35.9v0C0,16.1,16.1,0,35.9,0l0,0
		c19.8,0,35.9,16.1,35.9,35.9v0C71.7,55.7,55.7,71.7,35.9,71.7z"/>
	<g id="XMLID_115_">
		<path id="XMLID_118_" class="st1" d="M55.5,34.9c-0.3-10.4-8.8-18.7-19.3-18.7c-10.4,0-18.8,8.1-19.3,18.3c0,0.3,0,0.6,0,0.8
			c0,3.6,1,7,2.8,9.9l-3.5,10.3l10.7-3.4c2.8,1.5,5.9,2.4,9.3,2.4c10.7,0,19.3-8.6,19.3-19.2C55.5,35.2,55.5,35,55.5,34.9z
			 M36.2,51.5c-3.3,0-6.4-1-8.9-2.7l-6.2,2l2-6c-1.9-2.7-3.1-5.9-3.1-9.4c0-0.5,0-1,0.1-1.6c0.8-8.2,7.7-14.5,16.2-14.5
			c8.5,0,15.5,6.6,16.2,14.9c0,0.4,0.1,0.8,0.1,1.3C52.5,44.2,45.2,51.5,36.2,51.5z"/>
		<path id="XMLID_117_" class="st1" d="M45.1,39.2c-0.5-0.2-2.8-1.4-3.2-1.5c-0.4-0.2-0.8-0.2-1.1,0.2c-0.3,0.5-1.2,1.5-1.5,1.8
			c-0.3,0.3-0.6,0.4-1,0.1c-0.5-0.2-2-0.7-3.8-2.3c-1.4-1.2-2.4-2.8-2.6-3.2c-0.3-0.5,0-0.7,0.2-1c0.2-0.2,0.5-0.6,0.7-0.8
			c0.1-0.1,0.1-0.2,0.2-0.2c0.1-0.2,0.2-0.3,0.3-0.6c0.2-0.3,0.1-0.6,0-0.8s-1.1-2.5-1.5-3.5c-0.4-0.9-0.8-0.8-1.1-0.8
			c-0.3,0-0.6,0-0.9,0c-0.3,0-0.8,0.1-1.3,0.6c-0.4,0.5-1.7,1.6-1.7,3.9c0,0.5,0.1,1.1,0.2,1.6c0.5,1.7,1.5,3,1.7,3.3
			c0.2,0.3,3.3,5.2,8.1,7.1c4.8,1.9,4.8,1.2,5.7,1.2c0.9-0.1,2.8-1.1,3.2-2.2c0.4-1.1,0.4-2,0.3-2.2C45.9,39.6,45.5,39.5,45.1,39.2z
			"/>
	</g>
</g>
</svg>
