<?xml version="1.0" encoding="utf-8"?>
<!-- Generator: Adobe Illustrator 23.0.3, SVG Export Plug-In . SVG Version: 6.00 Build 0)  -->
<svg version="1.1" id="Camada_1" xmlns="http://www.w3.org/2000/svg" xmlns:xlink="http://www.w3.org/1999/xlink" x="0px" y="0px"
	 viewBox="0 0 71.7 71.7" style="enable-background:new 0 0 71.7 71.7;" xml:space="preserve">
<style type="text/css">
	.st0{fill:#117BB8;}
	.st1{fill:#FFFFFF;}
</style>
<g id="XMLID_1433_">
	<path id="XMLID_1439_" class="st0" d="M35.9,71.7L35.9,71.7C16.1,71.7,0,55.7,0,35.9l0,0C0,16.1,16.1,0,35.9,0l0,0
		c19.8,0,35.9,16.1,35.9,35.9l0,0C71.7,55.7,55.7,71.7,35.9,71.7z"/>
	<g id="XMLID_1434_">
		<g id="XMLID_1436_">
			<rect id="XMLID_1438_" x="19.6" y="27.9" class="st1" width="7.4" height="24"/>
			<path id="XMLID_1437_" class="st1" d="M23.3,24.7c2.4,0,4.4-2,4.4-4.4c0-2.4-2-4.4-4.4-4.4c-2.4,0-4.4,2-4.4,4.4
				C18.9,22.7,20.9,24.7,23.3,24.7z"/>
		</g>
		<path id="XMLID_1435_" class="st1" d="M38.9,39.3c0-3.4,1.6-5.4,4.5-5.4c2.7,0,4,1.9,4,5.4c0,3.5,0,12.6,0,12.6h7.4
			c0,0,0-8.8,0-15.2c0-6.4-3.6-9.5-8.7-9.5c-5.1,0-7.2,4-7.2,4v-3.2h-7.1v24h7.1C38.9,51.8,38.9,43,38.9,39.3z"/>
	</g>
</g>
</svg>
