<?xml version="1.0" encoding="utf-8"?>
<!-- Generator: Adobe Illustrator 24.2.1, SVG Export Plug-In . SVG Version: 6.00 Build 0)  -->
<svg version="1.1" id="Camada_1" xmlns="http://www.w3.org/2000/svg" xmlns:xlink="http://www.w3.org/1999/xlink" x="0px" y="0px"
	 viewBox="0 0 31.53 30.27" style="enable-background:new 0 0 31.53 30.27;" xml:space="preserve">
<style type="text/css">
	.st0{fill:#1CABE2;}
	.st1{fill:#FFFFFF;}
	.st2{fill:#D5D5D5;}
	.st3{fill:#07506F;}
	.st4{fill:#1DA8D8;}
</style>
<g>
	<g>
		<g>
			<path class="st3" d="M13.26,13.26h-0.54v-0.29h0.46c0.07,0,0.13-0.02,0.13-0.1c0-0.08-0.06-0.1-0.13-0.1h-0.46V12.5h0.53
				c0.08,0,0.14-0.02,0.14-0.11c0-0.09-0.06-0.11-0.14-0.11H12.6c-0.1,0-0.16,0.04-0.16,0.16v0.88c0,0.12,0.06,0.16,0.16,0.16h0.65
				c0.08,0,0.14-0.02,0.14-0.11S13.34,13.26,13.26,13.26z"/>
			<path class="st3" d="M13.26,13.49H12.6c-0.11,0-0.17-0.06-0.17-0.17v-0.88c0-0.11,0.06-0.17,0.17-0.17h0.64
				c0.06,0,0.15,0.01,0.15,0.12c0,0.11-0.08,0.12-0.15,0.12h-0.52v0.24h0.45c0.06,0,0.14,0.01,0.14,0.11c0,0.1-0.08,0.11-0.14,0.11
				h-0.45v0.27h0.53c0.06,0,0.15,0.01,0.15,0.12C13.4,13.48,13.32,13.49,13.26,13.49z M12.6,12.29c-0.1,0-0.15,0.05-0.15,0.15v0.88
				c0,0.1,0.05,0.15,0.15,0.15h0.65c0.09,0,0.13-0.03,0.13-0.1c0-0.07-0.04-0.1-0.13-0.1H12.7v-0.31h0.47c0.08,0,0.12-0.03,0.12-0.1
				c0-0.07-0.04-0.1-0.12-0.1H12.7v-0.28h0.54c0.09,0,0.13-0.03,0.13-0.1s-0.04-0.1-0.13-0.1H12.6z"/>
		</g>
		<g>
			<path class="st3" d="M14.2,12.79l-0.23-0.05c-0.09-0.02-0.19-0.05-0.19-0.13s0.07-0.14,0.2-0.14c0.25,0,0.23,0.18,0.36,0.18
				c0.07,0,0.12-0.04,0.12-0.11c0-0.16-0.25-0.28-0.46-0.28c-0.23,0-0.48,0.1-0.48,0.37c0,0.13,0.04,0.26,0.29,0.33l0.31,0.08
				c0.09,0.02,0.12,0.08,0.12,0.12c0,0.08-0.08,0.16-0.22,0.16c-0.28,0-0.24-0.22-0.39-0.22c-0.07,0-0.11,0.05-0.11,0.11
				c0,0.13,0.15,0.3,0.5,0.3c0.33,0,0.49-0.16,0.49-0.38C14.52,12.99,14.45,12.85,14.2,12.79z"/>
			<path class="st3" d="M14.02,13.52c-0.37,0-0.51-0.19-0.51-0.31c0-0.07,0.05-0.12,0.12-0.12c0.07,0,0.1,0.04,0.13,0.09
				c0.05,0.06,0.1,0.13,0.25,0.13c0.14,0,0.21-0.07,0.21-0.15c0-0.06-0.04-0.1-0.11-0.12l-0.31-0.08c-0.27-0.07-0.3-0.23-0.3-0.34
				c0-0.28,0.26-0.38,0.49-0.38c0.27,0,0.47,0.15,0.47,0.29c0,0.08-0.07,0.12-0.13,0.12c-0.06,0-0.09-0.03-0.12-0.07
				c-0.04-0.05-0.1-0.11-0.24-0.11c-0.12,0-0.19,0.05-0.19,0.13c0,0.07,0.08,0.1,0.18,0.12l0.23,0.05c0.21,0.05,0.32,0.17,0.32,0.35
				C14.53,13.37,14.33,13.52,14.02,13.52z M13.64,13.1c-0.06,0-0.11,0.04-0.11,0.1c0,0.11,0.13,0.29,0.49,0.29
				c0.3,0,0.48-0.14,0.48-0.37c0-0.18-0.1-0.29-0.31-0.34l-0.23-0.05c-0.08-0.02-0.19-0.04-0.19-0.14c0-0.09,0.08-0.15,0.21-0.15
				c0.15,0,0.21,0.06,0.25,0.12c0.03,0.04,0.06,0.06,0.1,0.06c0.06,0,0.12-0.03,0.12-0.1c0-0.15-0.24-0.27-0.45-0.27
				c-0.35,0-0.47,0.18-0.47,0.36c0,0.11,0.03,0.25,0.29,0.32l0.31,0.08c0.1,0.03,0.12,0.09,0.12,0.13c0,0.08-0.08,0.17-0.23,0.17
				c-0.16,0-0.22-0.08-0.27-0.14C13.72,13.14,13.69,13.1,13.64,13.1z"/>
		</g>
		<g>
			<path class="st3" d="M15.26,12.48c0.25,0,0.2,0.22,0.36,0.22c0.08,0,0.12-0.05,0.12-0.12c0-0.12-0.17-0.31-0.48-0.31
				c-0.39,0-0.59,0.29-0.59,0.63c0,0.41,0.22,0.63,0.6,0.63c0.26,0,0.47-0.17,0.47-0.34c0-0.07-0.07-0.1-0.13-0.1
				c-0.13,0-0.13,0.23-0.34,0.23c-0.24,0-0.32-0.19-0.32-0.41C14.95,12.62,15.09,12.48,15.26,12.48z"/>
			<path class="st3" d="M15.27,13.52c-0.39,0-0.61-0.23-0.61-0.64c0-0.32,0.18-0.64,0.6-0.64c0.33,0,0.49,0.21,0.49,0.32
				c0,0.08-0.05,0.13-0.13,0.13c-0.08,0-0.11-0.05-0.14-0.09c-0.04-0.06-0.09-0.12-0.22-0.12c-0.18,0-0.3,0.16-0.3,0.4
				c0,0.12,0.03,0.4,0.31,0.4c0.12,0,0.17-0.07,0.21-0.13c0.04-0.05,0.07-0.1,0.13-0.1c0.07,0,0.14,0.04,0.14,0.11
				C15.76,13.33,15.56,13.52,15.27,13.52z M15.26,12.27c-0.4,0-0.58,0.31-0.58,0.62c0,0.4,0.21,0.62,0.59,0.62
				c0.27,0,0.46-0.18,0.46-0.34c0-0.06-0.06-0.1-0.12-0.1c-0.05,0-0.08,0.04-0.12,0.09c-0.05,0.07-0.1,0.14-0.22,0.14
				c-0.21,0-0.33-0.15-0.33-0.42c0-0.25,0.13-0.42,0.32-0.42c0.14,0,0.19,0.07,0.24,0.13c0.03,0.05,0.06,0.09,0.13,0.09
				c0.07,0,0.11-0.04,0.11-0.11C15.74,12.45,15.55,12.27,15.26,12.27z"/>
		</g>
		<g>
			<path class="st3" d="M16.47,12.26c-0.39,0-0.61,0.26-0.61,0.61c0,0.36,0.18,0.64,0.61,0.64c0.41,0,0.61-0.3,0.61-0.64
				C17.08,12.52,16.86,12.26,16.47,12.26z M16.47,13.29c-0.26,0-0.33-0.19-0.33-0.42c0-0.23,0.11-0.39,0.33-0.39
				s0.33,0.16,0.33,0.39C16.8,13.1,16.72,13.29,16.47,13.29z"/>
			<path class="st3" d="M16.47,13.52c-0.39,0-0.62-0.24-0.62-0.65c0-0.38,0.24-0.62,0.62-0.62s0.62,0.24,0.62,0.62
				C17.09,13.19,16.9,13.52,16.47,13.52z M16.47,12.27c-0.37,0-0.6,0.23-0.6,0.6c0,0.4,0.22,0.63,0.6,0.63c0.28,0,0.6-0.17,0.6-0.63
				C17.07,12.5,16.84,12.27,16.47,12.27z M16.47,13.3c-0.23,0-0.34-0.15-0.34-0.43c0-0.25,0.13-0.4,0.34-0.4s0.34,0.15,0.34,0.4
				C16.81,13.15,16.69,13.3,16.47,13.3z M16.47,12.49c-0.2,0-0.32,0.14-0.32,0.38c0,0.27,0.11,0.41,0.32,0.41
				c0.15,0,0.32-0.07,0.32-0.41C16.79,12.63,16.67,12.49,16.47,12.49z"/>
		</g>
		<g>
			<path class="st3" d="M18.01,13.25h-0.46V12.4c0-0.08-0.05-0.14-0.14-0.14c-0.08,0-0.14,0.05-0.14,0.14v0.92
				c0,0.12,0.06,0.16,0.16,0.16h0.57c0.08,0,0.14-0.04,0.14-0.11C18.15,13.29,18.08,13.25,18.01,13.25z"/>
			<path class="st3" d="M18.01,13.49h-0.57c-0.11,0-0.17-0.06-0.17-0.17V12.4c0-0.09,0.06-0.15,0.15-0.15
				c0.09,0,0.15,0.06,0.15,0.15v0.84h0.45c0.09,0,0.15,0.05,0.15,0.12C18.16,13.44,18.1,13.49,18.01,13.49z M17.41,12.27
				c-0.08,0-0.13,0.05-0.13,0.13v0.92c0,0.1,0.05,0.15,0.15,0.15h0.57c0.06,0,0.13-0.03,0.13-0.11c0-0.08-0.07-0.11-0.13-0.11h-0.47
				V12.4C17.54,12.32,17.49,12.27,17.41,12.27z"/>
		</g>
		<g>
			<path class="st3" d="M18.91,12.36c-0.03-0.08-0.08-0.1-0.15-0.1h-0.06c-0.07,0-0.11,0.02-0.13,0.08l-0.35,0.93
				c-0.01,0.03-0.03,0.07-0.03,0.1c0,0.07,0.05,0.12,0.13,0.12c0.06,0,0.1-0.02,0.12-0.07l0.07-0.2h0.44l0.07,0.2
				c0.02,0.05,0.06,0.07,0.12,0.07c0.07,0,0.13-0.05,0.13-0.12c0-0.03-0.02-0.08-0.03-0.1L18.91,12.36z M18.56,13.04l0.16-0.48h0
				l0.15,0.48H18.56z"/>
			<path class="st3" d="M19.13,13.51c-0.07,0-0.11-0.03-0.13-0.08l-0.07-0.19h-0.43l-0.07,0.19c-0.02,0.06-0.06,0.08-0.13,0.08
				c-0.08,0-0.14-0.05-0.14-0.13c0-0.03,0.01-0.08,0.03-0.11l0.35-0.93c0.02-0.06,0.07-0.09,0.14-0.09h0.06
				c0.06,0,0.12,0.01,0.16,0.11l0.33,0.92c0.01,0.03,0.03,0.08,0.03,0.11C19.27,13.46,19.21,13.51,19.13,13.51z M18.49,13.22h0.45
				l0.07,0.21c0.02,0.05,0.05,0.07,0.11,0.07c0.07,0,0.12-0.05,0.12-0.11c0-0.02-0.01-0.06-0.03-0.1l-0.33-0.92
				c-0.03-0.08-0.07-0.09-0.14-0.09h-0.06c-0.07,0-0.1,0.02-0.12,0.08l-0.35,0.93c-0.02,0.04-0.03,0.08-0.03,0.1
				c0,0.07,0.05,0.11,0.12,0.11c0.06,0,0.1-0.02,0.11-0.07L18.49,13.22z M18.89,13.05h-0.35l0.17-0.5h0.02L18.89,13.05z
				 M18.57,13.03h0.29l-0.14-0.45L18.57,13.03z"/>
		</g>
		<g>
			<path class="st3" d="M11.53,15.57c-0.71,0-1.28,0.58-1.28,1.28v1.08c0,0.4,0.32,0.72,0.72,0.72h1.12c0.4,0,0.72-0.32,0.72-0.72
				v-1.08C12.82,16.15,12.24,15.57,11.53,15.57z M12.2,16.86v1.08c0,0.06-0.05,0.11-0.11,0.11h-1.12c-0.06,0-0.11-0.05-0.11-0.11
				v-1.08c0-0.37,0.3-0.67,0.67-0.67S12.2,16.48,12.2,16.86z"/>
			<path class="st3" d="M20.05,15.57c-0.71,0-1.28,0.58-1.28,1.28v1.08c0,0.4,0.32,0.72,0.72,0.72h1.12c0.4,0,0.72-0.32,0.72-0.72
				v-1.08C21.33,16.15,20.76,15.57,20.05,15.57z M20.72,16.86v1.08c0,0.06-0.05,0.11-0.11,0.11h-1.12c-0.06,0-0.11-0.05-0.11-0.11
				v-1.08c0-0.37,0.3-0.67,0.67-0.67C20.42,16.18,20.72,16.48,20.72,16.86z"/>
			<path class="st3" d="M24.18,14.75c-0.02-0.21-0.13-0.39-0.29-0.52l-7.61-6.09c-0.29-0.23-0.69-0.23-0.98,0l-7.61,6.09
				c-0.16,0.13-0.27,0.32-0.29,0.52c-0.02,0.21,0.04,0.41,0.17,0.57c0.13,0.16,0.32,0.27,0.53,0.29c0.21,0.02,0.41-0.04,0.57-0.17
				l0.77-0.61v5.63c0,0.77,0.53,1.4,1.18,1.4h10.36c0.65,0,1.18-0.63,1.18-1.4v-5.63l0.77,0.61c0.14,0.11,0.31,0.17,0.49,0.17
				c0.24,0,0.46-0.11,0.61-0.29C24.14,15.16,24.2,14.96,24.18,14.75z M13.82,17.95c0-1.09,0.89-1.97,1.97-1.97
				c1.09,0,1.97,0.89,1.97,1.97v3.24h-3.95V17.95z M20.01,11.9l3.5,2.8c0.04,0.03,0.06,0.07,0.06,0.11c0,0.05-0.01,0.09-0.04,0.12
				c-0.06,0.07-0.17,0.08-0.24,0.03l-3.24-2.59v-0.15C20.06,12.11,20.04,12,20.01,11.9z M20.97,21.19h-2.59v-3.24
				c0-1.43-1.16-2.59-2.59-2.59s-2.58,1.16-2.58,2.59v3.24h-2.59c-0.31,0-0.57-0.33-0.57-0.73v-5.92c0-0.07,0.01-0.14,0.03-0.22
				l1.45-1.16v0.36c0,0.58,0.47,1.04,1.04,1.04h6.45c0.58,0,1.04-0.47,1.04-1.04v-0.36l1.45,1.16c0.02,0.07,0.03,0.15,0.03,0.22
				v5.92C21.54,20.86,21.28,21.19,20.97,21.19z M19.45,13.52c0,0.24-0.19,0.43-0.43,0.43h-6.45c-0.24,0-0.43-0.19-0.43-0.43v-1.29
				c0-0.24,0.19-0.43,0.43-0.43h6.45c0.24,0,0.43,0.19,0.43,0.43V13.52z M14,11.18l1.8-1.44l1.8,1.44H14z M19.02,11.18h-0.45
				l-2.78-2.22l-2.78,2.22h-0.45c-0.03,0-0.07,0-0.1,0l3.22-2.58c0.03-0.02,0.07-0.04,0.11-0.04c0.04,0,0.07,0.01,0.11,0.04
				l3.22,2.58C19.08,11.19,19.05,11.18,19.02,11.18z M11.58,11.9c-0.03,0.1-0.05,0.21-0.05,0.33v0.15l-3.24,2.59
				C8.25,15,8.21,15.01,8.16,15C8.12,15,8.08,14.98,8.05,14.94c-0.03-0.04-0.04-0.08-0.04-0.12c0-0.05,0.03-0.09,0.06-0.11
				L11.58,11.9z"/>
		</g>
	</g>
	<g>
		<g>
			<path class="st3" d="M22.59,2.08L22.59,2.08c-2.63-0.01-5.13,1.14-6.82,3.15c-1.68-2.03-4.19-3.18-6.82-3.15
				C4,2.08,0,6.09,0,11.02c0,8.46,14.77,16.72,15.37,17.04c0.24,0.16,0.56,0.16,0.8,0c0.6-0.32,15.37-8.46,15.37-17.04
				C31.53,6.09,27.53,2.08,22.59,2.08z M15.76,26.47C13.45,25.11,1.6,17.89,1.6,11.02c0-4.06,3.29-7.34,7.34-7.34
				c2.48-0.03,4.81,1.22,6.15,3.31c0.27,0.37,0.8,0.46,1.17,0.19c0.07-0.05,0.13-0.11,0.19-0.19c2.22-3.39,6.77-4.35,10.17-2.13
				c2.08,1.36,3.33,3.68,3.32,6.16C29.93,17.97,18.08,25.15,15.76,26.47z"/>
		</g>
	</g>
</g>
</svg>
